<svg width="666" height="365" viewBox="0 0 666 365" fill="none" xmlns="http://www.w3.org/2000/svg">
<path d="M523.91 137.285C519.38 137.285 514.91 137.285 510.44 137.285C495.774 137.445 481.137 137.622 466.53 137.815C446.144 138.075 425.754 138.332 405.36 138.585C385.29 138.815 365.21 138.975 345.14 139.205C325.07 139.435 305.14 139.725 285.14 139.985C282.98 139.985 280.82 140.065 278.66 139.985C278.412 139.949 278.159 139.963 277.916 140.027C277.673 140.091 277.446 140.203 277.248 140.358C277.05 140.512 276.885 140.704 276.764 140.924C276.642 141.144 276.566 141.385 276.54 141.635C276.97 142.095 277.44 142.635 277.94 143.115C281.79 146.845 285.66 150.545 289.49 154.295C290.443 155.151 291.274 156.133 291.96 157.215C292.645 158.278 293.053 159.495 293.15 160.755C293.25 177.955 293.25 195.145 293.27 212.345C293.244 212.701 293.198 213.055 293.13 213.405H280.99C280.894 212.822 280.831 212.235 280.8 211.645C280.8 198.772 280.8 185.895 280.8 173.015C280.847 171.498 280.814 169.979 280.7 168.465C280.306 164.518 278.404 160.875 275.39 158.295C272.89 156.065 270.53 153.675 268.08 151.375C266.496 149.786 264.827 148.284 263.08 146.875C257.32 142.515 254.92 136.125 257.32 127.585C258.84 127.435 260.48 127.155 262.12 127.135C279.074 126.935 296.027 126.755 312.98 126.595L373.92 125.965L412.07 125.575L479.48 124.815C490.03 124.705 500.59 124.665 511.15 124.505C515.464 124.319 519.785 124.56 524.05 125.225C539.89 128.145 551.73 143.305 550.7 159.395C549.7 175.205 538.79 187.705 523.35 190.225C518.08 191.085 512.68 191.065 507.35 191.405C505.05 191.545 502.75 191.585 500.2 191.675V211.395H487.32C487.27 210.395 487.19 209.395 487.19 208.395C487.19 199.675 487.31 190.955 487.19 182.245C487.148 180.97 487.376 179.701 487.858 178.521C488.341 177.34 489.067 176.275 489.99 175.395C495.22 170.105 500.39 164.765 505.57 159.395C511.5 153.285 517.32 147.125 523.32 141.125C523.886 140.678 524.262 140.034 524.371 139.321C524.48 138.609 524.316 137.881 523.91 137.285V137.285ZM505.71 177.795C512.32 178.615 517.54 178.505 521.85 177.555C526.612 176.494 530.829 173.746 533.723 169.818C536.616 165.89 537.99 161.047 537.59 156.185C537.483 153.896 536.817 151.668 535.65 149.695L505.71 177.795Z" fill="white"/>
<path d="M65.0407 148.415C65.048 147.46 64.944 146.507 64.7307 145.575C64.2307 143.495 62.9507 142.575 60.8707 142.885C57.0307 143.495 53.4207 144.685 50.5407 147.515C45.5207 152.442 40.4907 157.362 35.4507 162.275C34.7707 162.935 34.0707 163.575 33.2207 164.375C31.8669 163.644 30.5639 162.822 29.3207 161.915C27.425 160.323 25.6126 158.634 23.8907 156.855C21.9407 154.855 20.1507 152.685 18.2307 150.645C16.236 148.444 13.8657 146.616 11.2307 145.245C7.79816 143.554 3.90412 143.041 0.150696 143.785C0.0906965 144.945 -0.00930339 145.965 0.000696605 146.985C0.127363 161.772 0.267363 176.568 0.420696 191.375C0.567363 205.128 0.727363 218.882 0.900696 232.635C1.3707 271.885 2.9007 311.135 3.2007 350.385C3.2007 356.585 6.3707 360.685 11.5507 364.385C11.7507 362.145 12.0407 360.385 12.0307 358.675C12.0307 353.075 11.8607 347.475 11.7907 341.875C11.4407 313.655 11.0907 285.435 10.9007 257.215C10.8507 249.305 10.8207 241.385 10.7507 233.465C10.6807 224.465 10.5307 215.545 10.4907 206.595C10.4674 205.153 10.7402 203.72 11.2923 202.387C11.8444 201.054 12.6641 199.849 13.7007 198.845C20.0507 192.415 26.2607 185.845 32.5407 179.345C33.0207 178.845 33.5407 178.435 34.0807 178.005C34.3503 178.142 34.605 178.306 34.8407 178.495C40.3807 184.705 45.9507 190.885 51.4207 197.145C53.271 199.27 54.5844 201.808 55.2507 204.545C55.7096 206.65 56.0435 208.781 56.2507 210.925C56.8507 215.725 58.1207 216.575 62.7507 215.205C64.9607 214.555 65.0407 214.475 65.0407 211.995C65.054 190.808 65.054 169.615 65.0407 148.415ZM23.1407 174.895C19.4907 178.705 15.8807 182.555 12.2507 186.385C11.8716 186.676 11.4704 186.937 11.0507 187.165V157.525C11.5658 157.914 12.0505 158.342 12.5007 158.805C16.0507 163.335 19.5707 167.885 23.1407 172.405C23.8307 173.285 24.0107 173.995 23.1407 174.895V174.895ZM54.7607 186.125C53.2907 185.495 42.6107 174.285 40.5807 171.125C45.1307 166.915 49.7307 162.685 54.5007 158.445C55.3207 160.635 55.4107 183.755 54.7607 186.125Z" fill="#680FEF"/>
<path d="M605.321 134.485C605.034 106.745 604.871 79.0016 604.831 51.255C604.664 38.7883 604.431 26.315 604.131 13.835C604.147 12.3163 603.883 10.8076 603.351 9.38495C602.011 6.16495 600.401 3.04496 598.971 0.0349593C597.461 -0.135041 596.801 0.304953 596.831 1.57495C596.831 2.29495 596.831 3.01496 596.831 3.73496V173.405C596.831 174.405 596.761 175.405 596.711 176.885C595.711 176.145 595.161 175.785 594.711 175.315L570.321 151.475C569.417 150.574 568.458 149.729 567.451 148.945C566.248 148.069 564.852 147.497 563.381 147.276C561.91 147.055 560.408 147.192 559.001 147.675C557.261 148.155 557.001 148.435 557.001 150.175C557.081 161.615 557.141 173.045 557.341 184.485C557.41 186.957 557.745 189.415 558.341 191.815C560.721 201.615 567.151 207.465 576.821 209.465C586.821 211.525 594.951 208.165 600.981 199.955C604.258 195.355 605.921 189.799 605.711 184.155C605.624 167.595 605.494 151.038 605.321 134.485ZM594.621 194.655C590.921 200.925 584.351 203.415 576.811 201.275C570.361 199.445 566.811 195.185 566.221 188.625C565.351 179.685 565.961 170.735 565.991 161.785C566.065 161.066 566.195 160.354 566.381 159.655C567.201 160.335 567.761 160.735 568.261 161.215C576.651 169.335 584.961 177.525 593.441 185.545C594.68 186.681 595.478 188.218 595.694 189.885C595.91 191.551 595.53 193.241 594.621 194.655Z" fill="#7214FF"/>
<path d="M417.841 179.935C418.041 163.655 429.761 149.935 445.771 147.935C462.981 145.775 476.841 156.585 480.361 171.675C483.451 184.905 480.271 196.625 469.491 205.295C451.351 219.905 423.661 210.515 418.611 186.295C418.171 184.245 418.091 182.125 417.841 179.935ZM459.841 199.455L431.351 168.615C428.507 172.954 427.338 178.178 428.061 183.315C428.763 188.891 431.572 193.987 435.912 197.557C440.252 201.128 445.794 202.902 451.401 202.515C454.456 202.33 457.394 201.268 459.861 199.455H459.841ZM439.841 160.515C449.401 170.755 458.791 180.925 468.351 191.095C473.871 181.095 472.351 170.305 464.501 163.005C455.961 155.025 445.381 156.375 439.901 160.515H439.841Z" fill="white"/>
<path d="M183.97 148.175C182.97 149.455 182.23 150.665 181.28 151.715C180.382 152.806 179.189 153.615 177.843 154.046C176.497 154.477 175.055 154.512 173.69 154.145C172.524 153.882 171.375 153.548 170.25 153.145C161.45 149.915 153.56 151.555 146.57 157.625C142.12 161.346 138.896 166.323 137.32 171.905C136.22 175.779 136.22 179.882 137.32 183.755C140.32 194.015 146.37 201.245 157.21 203.755C161.94 204.849 166.886 204.55 171.45 202.895C170.27 201.475 169.29 200.145 168.14 198.985C165.96 196.765 163.64 194.675 161.44 192.455C159.026 190.199 157.394 187.232 156.78 183.985C156.494 181.513 156.781 179.008 157.62 176.665H194.32V186.335C187.52 187.335 180.53 186.055 173.65 188.415C175.2 190.415 177.17 191.655 178.86 193.155C180.55 194.655 182.52 196.255 184.36 197.805L189.76 202.395C189.22 203.035 188.82 203.625 188.32 204.105C178.24 213.905 166.32 217.775 152.69 213.895C139.06 210.015 130.25 200.845 126.82 187.105C121.39 165.325 135.68 144.405 157.9 141.245C164.502 140.164 171.276 141.022 177.4 143.715C179.86 144.759 182.092 146.274 183.97 148.175Z" fill="white"/>
<path d="M86.0906 204.525H119.871V215.435C118.221 215.945 77.4706 216.055 74.8706 215.515V173.575H96.9506C97.5073 173.624 98.0678 173.607 98.6206 173.525C99.0206 173.425 99.6206 173.095 99.6206 172.785C99.655 172.275 99.5099 171.769 99.2106 171.355C98.8848 171.002 98.503 170.705 98.0806 170.475C91.8806 166.095 85.7006 161.685 79.4606 157.355C73.9406 153.515 72.2106 148.155 74.7306 142.035H119.601V152.125C118.701 152.125 117.861 152.255 117.011 152.265H98.0106C97.3736 152.232 96.735 152.248 96.1006 152.315C95.8643 152.347 95.6419 152.446 95.4593 152.599C95.2768 152.753 95.1415 152.955 95.0692 153.182C94.997 153.409 94.9907 153.652 95.0511 153.883C95.1115 154.114 95.2362 154.322 95.4106 154.485C95.6379 154.712 95.8894 154.913 96.1606 155.085C102.161 159.445 108.231 163.775 114.221 168.175C115.672 169.161 116.993 170.327 118.151 171.645C121.211 175.385 120.881 179.595 119.541 184.115H86.3206C85.7806 186.055 85.6106 200.125 86.0906 204.525Z" fill="white"/>
<path d="M248.6 138.635V213.975C243.41 215.975 238.75 214.745 235.46 210.545C234.97 209.925 234.56 209.225 234.11 208.545L220.32 188.385C220.126 188.171 219.912 187.977 219.68 187.805C219.27 188.305 218.86 188.755 218.52 189.245C213.976 195.424 209.757 201.836 205.88 208.455C202.04 215.355 196.88 215.585 190.72 214.825C189.94 214.69 189.169 214.509 188.41 214.285C188.665 213.708 188.956 213.147 189.28 212.605C204.493 189.992 219.703 167.385 234.91 144.785C236.144 142.8 238.096 141.367 240.36 140.785L248.6 138.635ZM237.55 191.845V162.035C234.06 165.665 230.8 168.795 228.98 173.035C228.465 174.209 228.2 175.478 228.2 176.76C228.2 178.042 228.465 179.311 228.98 180.485C230.87 184.985 234.09 188.485 237.55 191.845V191.845Z" fill="white"/>
<path d="M644.551 179.515L646.411 181.515C652.051 187.625 657.661 193.765 663.351 199.825C663.966 200.448 664.432 201.204 664.713 202.033C664.993 202.863 665.082 203.746 664.971 204.615C664.841 206.195 664.781 207.785 664.691 209.345C662.941 209.845 615.971 209.985 612.861 209.515C612.243 207.875 612.006 206.116 612.169 204.372C612.332 202.627 612.89 200.942 613.801 199.445C614.617 198.07 615.565 196.777 616.631 195.585C626.031 184.698 635.451 173.818 644.891 162.945C646.761 160.775 648.481 158.475 650.541 155.945C648.416 155.672 646.271 155.591 644.131 155.705C641.971 155.655 639.811 155.705 637.651 155.705H612.321V146.125H664.151C664.623 148.629 664.44 151.212 663.621 153.625C662.557 156.985 660.749 160.061 658.331 162.625C656.251 164.945 654.001 167.105 651.921 169.435C650.061 171.515 648.281 173.675 646.591 175.895C645.825 177.051 645.143 178.261 644.551 179.515ZM637.061 186.675L626.231 199.935C628.651 200.565 648.991 200.505 650.851 199.855L637.061 186.675Z" fill="white"/>
<path d="M320.321 189.125H338.011C337.794 188.321 337.513 187.535 337.171 186.775C335.381 183.575 333.641 180.335 331.681 177.235C329.511 173.785 327.051 170.525 324.841 167.095C322.008 162.895 320.162 158.109 319.441 153.095C319.251 151.615 319.231 150.095 319.131 148.515C321.131 148.515 322.881 148.515 324.611 148.515C329.611 148.585 334.691 148.515 339.721 148.795C342.991 148.966 346.241 149.424 349.431 150.165C362.431 153.225 368.221 165.565 366.941 176.095C366.219 182.531 363.029 188.435 358.041 192.565L354.961 195.205L360.321 203.765C362.048 206.538 363.778 209.315 365.511 212.095C361.421 214.215 356.071 213.465 353.101 210.315C352.115 209.168 351.223 207.944 350.431 206.655C349.071 204.655 347.841 202.655 346.431 200.655C345.71 199.636 344.736 198.824 343.605 198.297C342.473 197.771 341.224 197.55 339.981 197.655C337.981 197.785 335.981 198.025 333.981 198.305C332.731 198.475 331.501 198.805 330.061 199.105V212.725H320.321V189.125ZM349.051 186.325C351.524 184.871 353.631 182.87 355.211 180.475C359.971 173.475 356.531 161.085 346.211 159.275C342.573 158.68 338.867 158.616 335.211 159.085C334.161 159.205 333.111 159.415 331.731 159.635L349.051 186.325Z" fill="white"/>
<path d="M412.581 184.925H383.731V203.125H413.151V212.065H374.051V176.255C374.831 176.255 375.601 176.155 376.371 176.155H392.201C392.757 176.221 393.321 176.201 393.871 176.095C394.356 175.918 394.754 175.559 394.981 175.095C395.111 174.795 394.821 174.225 394.561 173.885C394.228 173.541 393.852 173.242 393.441 172.995C388.311 169.325 383.191 165.615 378.031 161.995C373.201 158.585 371.791 154.455 373.801 148.995H412.581C412.881 151.805 412.641 154.635 412.711 157.675C411.711 157.725 410.991 157.815 410.221 157.815H394.861C394.307 157.745 393.745 157.745 393.191 157.815C392.721 157.945 392.081 158.265 391.961 158.645C391.949 158.895 391.995 159.144 392.096 159.373C392.197 159.602 392.349 159.805 392.541 159.965C394.661 161.665 396.821 163.335 399.011 164.965C401.911 167.085 404.871 169.145 407.801 171.225C408.391 171.645 409.001 172.025 409.561 172.475C413.401 175.585 414.411 179.435 412.581 184.925Z" fill="white"/>
<path d="M66.6808 275.715C66.6808 265.355 74.5508 257.395 84.6008 257.515C94.8808 257.645 102.801 265.905 102.751 276.515C102.79 278.9 102.349 281.269 101.454 283.48C100.56 285.691 99.2294 287.7 97.5426 289.387C95.8559 291.074 93.8471 292.404 91.6358 293.299C89.4246 294.193 87.0559 294.634 84.6708 294.595C74.5408 294.445 66.6408 286.175 66.6808 275.715ZM80.8908 264.125L95.9508 281.535C97.1289 279.14 97.5091 276.43 97.0358 273.803C96.5626 271.175 95.2607 268.769 93.3208 266.935C89.6608 263.325 85.0208 262.185 80.8908 264.125ZM73.5208 270.615C70.5208 277.395 73.0508 282.885 76.9208 285.975C80.7908 289.065 85.2708 289.975 88.1508 288.035L73.5208 270.615Z" fill="white"/>
<path d="M367.531 261.375L347.851 263.925C346.771 265.515 347.351 266.505 348.491 267.555C354.671 273.245 360.791 278.995 366.941 284.705C367.581 285.295 368.291 285.805 368.941 286.305C367.192 288.964 364.697 291.046 361.769 292.292C358.84 293.537 355.609 293.89 352.481 293.305C339.481 290.215 332.911 274.675 341.371 263.585C345.921 257.585 352.011 255.735 359.261 257.395C362.271 258.113 365.092 259.471 367.531 261.375V261.375ZM344.321 271.995C342.741 275.995 344.321 281.995 347.621 284.845C349.02 286.119 350.772 286.939 352.646 287.197C354.52 287.456 356.429 287.142 358.121 286.295L344.321 271.995Z" fill="white"/>
<path d="M240.011 286.365C238.047 289.203 235.196 291.309 231.905 292.352C228.615 293.394 225.071 293.314 221.831 292.125C209.881 287.495 206.751 271.345 216.131 262.615C218.639 260.235 221.869 258.76 225.31 258.421C228.751 258.082 232.207 258.9 235.131 260.745C235.451 260.955 235.741 261.225 236.461 261.795L219.031 263.795C218.181 265.795 219.031 266.795 220.171 267.845C226.061 273.365 231.911 278.915 237.791 284.455C238.511 285.045 239.231 285.665 240.011 286.365ZM230.871 288.365C229.721 285.965 217.641 271.895 216.101 271.005C214.151 274.755 214.901 281.295 217.841 284.705C221.321 288.715 225.751 289.345 230.871 288.395V288.365Z" fill="#7214FF"/>
<path d="M157.23 261.595C158.515 261.863 159.693 262.503 160.617 263.434C161.542 264.366 162.172 265.548 162.43 266.835C163.3 270.075 164.43 273.235 165.43 276.425C165.67 277.175 165.93 277.925 166.17 278.635C167.42 278.575 167.27 277.735 167.27 277.055C167.27 274.895 167.2 272.745 167.19 270.585C167.19 269.465 167.31 268.345 167.28 267.225C167.254 266.173 167.461 265.128 167.887 264.165C168.312 263.202 168.945 262.345 169.74 261.655C170.483 262.191 171.088 262.895 171.506 263.711C171.923 264.526 172.141 265.429 172.14 266.345C172.32 274.015 172.5 281.685 172.73 289.345C172.79 291.215 171.73 292.485 170.64 293.915C168.24 293.245 166.44 292.055 165.56 289.475C164.56 286.525 163.28 283.675 162.08 280.805C161.76 280.045 161.32 279.335 160.93 278.605L160.36 278.765V281.765C160.36 284.325 160.36 286.885 160.36 289.445C160.36 291.715 160.3 291.715 158.56 293.795C157.661 293.483 156.885 292.891 156.346 292.107C155.806 291.323 155.531 290.387 155.56 289.435C155.44 281.925 155.26 274.435 154.96 266.905C154.882 265.903 155.048 264.896 155.443 263.971C155.838 263.047 156.451 262.231 157.23 261.595V261.595Z" fill="white"/>
<path d="M245.631 262.125C248.666 261.208 251.88 261.05 254.991 261.665C258.611 262.495 260.841 265.215 261.041 269.315C261.172 271.306 261.021 273.306 260.591 275.255C259.451 279.865 259.861 284.435 260.411 289.045C260.601 290.545 260.661 292.045 260.771 293.525C258.371 294.375 256.581 293.725 255.891 291.585C255.466 289.887 255.133 288.168 254.891 286.435C254.521 284.615 254.021 282.855 251.681 282.165C250.861 286.065 250.071 289.855 249.251 293.725H245.651L245.631 262.125ZM248.831 270.445C249.621 271.575 250.221 272.515 250.901 273.385C251.581 274.255 252.021 275.455 253.151 276.005C256.311 271.875 256.151 270.355 252.351 266.665L248.831 270.445Z" fill="white"/>
<path d="M107.78 262.695C108.42 262.565 109.03 262.405 109.65 262.325C111.65 262.055 112.48 262.415 113.28 264.255C114.17 266.305 114.83 268.445 115.64 270.535C116.45 272.625 117.4 274.985 118.33 277.185C118.663 277.941 119.146 278.621 119.75 279.185C120.13 273.505 119.94 267.845 120.09 261.935C120.778 262.157 121.4 262.547 121.898 263.072C122.396 263.596 122.754 264.236 122.94 264.935C123.754 267.352 124.34 269.839 124.69 272.365C125.212 279.302 125.038 286.273 124.17 293.175C124.083 293.658 123.945 294.13 123.76 294.585C122.388 294.408 121.095 293.843 120.033 292.958C118.97 292.072 118.182 290.902 117.76 289.585C117.1 287.795 116.71 285.905 116.15 284.075C115.59 282.245 114.99 280.445 113.05 279.075C112.939 279.65 112.862 280.231 112.82 280.815C112.82 282.735 112.82 284.655 112.82 286.575C112.917 287.929 112.724 289.288 112.253 290.56C111.782 291.833 111.045 292.991 110.09 293.955C108.84 292.515 107.68 291.105 107.67 289.045C107.67 280.572 107.64 272.098 107.58 263.625C107.623 263.31 107.69 263 107.78 262.695V262.695Z" fill="white"/>
<path d="M436.771 276.705C435.803 278.813 435.373 281.13 435.521 283.445C435.558 285.114 435.494 286.784 435.331 288.445C435.179 289.709 434.733 290.919 434.03 291.98C433.327 293.041 432.386 293.922 431.281 294.555V260.455C432.396 260.504 433.479 260.836 434.431 261.418C435.382 262.001 436.17 262.815 436.721 263.785C437.377 265.056 437.883 266.398 438.231 267.785C438.661 269.235 438.851 270.785 439.231 272.215C439.557 273.924 440.518 275.446 441.921 276.475C442.231 275.594 442.442 274.682 442.551 273.755C442.551 271.755 442.271 269.755 442.351 267.755C442.359 265.938 442.618 264.131 443.121 262.385C443.791 260.385 444.361 260.385 446.751 260.915V292.445C444.221 293.815 442.601 293.245 441.601 290.445C440.261 286.775 439.021 283.065 437.741 279.375C437.521 278.715 437.241 277.985 436.771 276.705Z" fill="white"/>
<path d="M404.121 293.125C400.381 289.525 400.441 284.515 398.561 280.375C395.931 280.425 394.941 281.375 394.931 283.725C394.904 284.285 394.948 284.846 395.061 285.395C395.941 288.585 394.621 291.145 392.691 293.755L390.451 293.335C390.357 293.008 390.29 292.674 390.251 292.335C390.251 283.135 390.311 273.935 390.251 264.735C390.191 264.019 390.337 263.3 390.672 262.664C391.007 262.028 391.517 261.501 392.141 261.145C393.073 261.426 393.87 262.037 394.384 262.864C394.897 263.69 395.092 264.676 394.931 265.635C394.881 266.345 394.981 267.075 394.931 267.795C394.797 269.015 395.001 270.249 395.519 271.361C396.038 272.474 396.851 273.423 397.871 274.105C399.921 272.785 401.201 271.055 400.961 268.445C400.911 267.885 400.961 267.325 400.881 266.765C400.734 265.678 400.893 264.572 401.34 263.57C401.787 262.569 402.504 261.712 403.411 261.095C404.121 261.674 404.693 262.403 405.087 263.23C405.482 264.056 405.688 264.96 405.691 265.875C405.771 273.395 405.941 280.875 406.161 288.425C406.2 289.312 406.037 290.196 405.683 291.01C405.33 291.825 404.796 292.548 404.121 293.125V293.125Z" fill="white"/>
<path d="M412.94 260.445L415.39 261.235C415.39 262.075 415.39 262.935 415.39 263.785C415.39 269.705 415.55 275.625 415.48 281.535C415.459 282.743 415.707 283.941 416.207 285.041C416.707 286.141 417.446 287.116 418.37 287.895C420.05 286.139 420.973 283.794 420.94 281.365C420.83 276.655 420.94 271.935 420.83 267.215C420.704 264.99 421.454 262.804 422.92 261.125C424.59 262.295 425.8 263.625 425.84 265.885C425.96 271.885 426.2 277.885 426.36 283.885C426.404 285.004 426.357 286.124 426.22 287.235C426.075 289.055 425.235 290.75 423.874 291.967C422.513 293.185 420.736 293.832 418.91 293.775C414.48 293.875 411.59 291.645 410.91 287.485C410.705 286.141 410.595 284.784 410.58 283.425C410.48 278.092 410.404 272.735 410.35 267.355C410.32 263.825 410.5 263.445 412.94 260.445Z" fill="white"/>
<path d="M312.721 294.655C312.721 290.875 312.791 287.365 312.721 283.865C312.715 281.001 312.508 278.14 312.101 275.305C311.435 271.459 309.279 268.031 306.101 265.765C304.362 264.477 303.094 262.653 302.491 260.575C302.111 259.375 301.671 258.185 301.221 256.865C301.761 256.788 302.305 256.741 302.851 256.725C308.851 256.725 314.851 256.835 320.851 256.725C321.93 256.716 322.996 256.967 323.958 257.456C324.921 257.945 325.751 258.658 326.381 259.535C325.793 260.358 325.021 261.032 324.127 261.504C323.233 261.976 322.242 262.233 321.231 262.255C318.281 262.255 315.321 262.255 312.361 262.325C311.841 262.325 311.361 262.325 310.361 262.415C310.911 262.945 311.161 263.215 311.441 263.415C313.778 265.255 315.648 267.623 316.895 270.324C318.143 273.024 318.734 275.982 318.621 278.955C318.621 282.315 318.281 285.665 318.161 289.015C318.021 292.745 318.051 292.755 314.571 294.015C314.081 294.215 313.551 294.385 312.721 294.655Z" fill="white"/>
<path d="M459.771 293.285C459.771 290.365 459.771 287.665 459.771 284.955C459.815 281.69 459.678 278.425 459.361 275.175C459.116 273.219 458.468 271.336 457.458 269.644C456.448 267.951 455.097 266.488 453.491 265.345C451.524 263.955 450.125 261.903 449.551 259.565C449.291 258.565 448.921 257.615 448.551 256.485C449.131 256.415 449.551 256.325 449.861 256.325C456.021 256.325 462.171 256.415 468.331 256.325C469.371 256.208 470.422 256.433 471.323 256.965C472.225 257.497 472.93 258.308 473.331 259.275C472.884 260.027 472.239 260.641 471.467 261.05C470.694 261.459 469.824 261.648 468.951 261.595C465.861 261.595 462.781 261.885 459.541 262.055C459.701 262.535 459.701 262.805 459.841 262.925C464.021 266.555 465.471 271.325 465.541 276.645C465.541 278.245 465.401 279.845 465.371 281.435C465.321 283.755 465.311 286.065 465.291 288.385C465.291 288.865 465.351 289.385 465.291 289.815C465.081 292.335 464.231 293.155 461.711 293.295C461.151 293.315 460.591 293.285 459.771 293.285Z" fill="white"/>
<path d="M289.871 293.795C289.228 293.591 288.644 293.237 288.165 292.763C287.687 292.288 287.329 291.706 287.121 291.065C286.321 288.983 285.719 286.83 285.321 284.635C284.261 277.145 284.801 269.635 285.691 262.135C288.64 261.008 291.835 260.684 294.951 261.195C296.03 261.367 297.042 261.83 297.878 262.535C298.713 263.24 299.34 264.16 299.691 265.195C300.737 267.801 301.152 270.618 300.901 273.415C300.773 274.822 300.272 276.169 299.449 277.317C298.626 278.465 297.512 279.372 296.221 279.945C294.221 280.945 292.121 281.655 289.871 282.575V293.795ZM292.751 276.665C296.541 271.075 296.511 270.155 292.431 265.855C292.308 265.763 292.169 265.695 292.021 265.655C291.742 265.697 291.476 265.795 291.237 265.944C290.998 266.093 290.793 266.289 290.634 266.521C290.474 266.752 290.364 267.014 290.31 267.29C290.256 267.566 290.26 267.851 290.321 268.125C290.441 269.88 290.441 271.641 290.321 273.395C290.234 273.773 290.231 274.164 290.311 274.543C290.391 274.922 290.551 275.279 290.782 275.59C291.013 275.901 291.309 276.158 291.649 276.343C291.988 276.529 292.364 276.639 292.751 276.665V276.665Z" fill="white"/>
<path d="M190.131 262.795C189.521 265.675 187.851 266.695 185.391 266.685H181.971C181.971 269.035 181.901 271.165 182.031 273.295C182.031 273.765 182.671 274.345 183.151 274.635C184.811 275.635 186.531 276.455 188.211 277.375C188.741 277.675 189.211 278.035 190.061 278.565L182.161 281.085C182.161 283.345 182.161 285.495 182.161 287.635C182.161 288.635 182.841 289.025 183.591 289.335C184.991 289.915 186.421 290.435 187.831 291.005C188.631 291.325 189.421 291.675 190.291 292.005C186.159 294.273 181.309 294.851 176.761 293.615C176.761 293.035 176.641 292.415 176.641 291.785C176.641 283.315 176.641 274.835 176.721 266.365C176.721 263.145 178.551 261.365 181.781 261.365C182.742 261.356 183.703 261.433 184.651 261.595C186.441 261.975 188.211 262.395 190.131 262.795Z" fill="white"/>
<path d="M266.261 260.755C268.261 264.045 270.211 267.225 272.161 270.425C273.591 269.825 273.691 268.635 273.981 267.605C274.221 266.765 274.291 265.875 274.501 265.025C275.271 261.885 276.831 260.915 280.151 261.515C280.151 261.715 280.311 261.975 280.241 262.165C277.721 269.625 276.981 277.445 275.601 285.165C275.391 286.345 275.171 287.525 275.021 288.715C274.95 289.688 274.677 290.635 274.219 291.496C273.761 292.357 273.128 293.113 272.361 293.715C271.68 293.514 271.075 293.111 270.627 292.559C270.179 292.008 269.908 291.333 269.851 290.625C268.271 281.735 266.651 272.865 265.061 263.985C264.851 262.775 264.481 261.505 266.261 260.755Z" fill="white"/>
<path d="M131.691 261.715C132.527 262.367 133.186 263.219 133.605 264.192C134.025 265.166 134.192 266.23 134.091 267.285C134.021 273.355 134.161 279.425 134.091 285.495C134.016 286.119 134.147 286.75 134.465 287.292C134.783 287.834 135.27 288.257 135.851 288.495C137.641 289.365 139.341 290.415 141.071 291.415C141.461 291.635 141.791 291.945 142.531 292.485C137.771 293.325 133.581 295.245 128.931 293.565C128.834 293.128 128.774 292.683 128.751 292.235C128.751 283.615 128.911 274.985 128.851 266.365C128.796 265.393 129.038 264.428 129.545 263.597C130.053 262.766 130.801 262.11 131.691 261.715Z" fill="white"/>
<path d="M333.89 293.315C333.008 292.862 332.28 292.158 331.799 291.291C331.319 290.424 331.107 289.433 331.19 288.445C331.14 280.855 330.95 273.265 330.73 265.685C330.627 264.811 330.769 263.926 331.142 263.129C331.515 262.332 332.103 261.655 332.84 261.175C333.766 261.551 334.548 262.214 335.068 263.068C335.588 263.921 335.821 264.92 335.73 265.915C335.66 269.185 335.73 272.455 335.73 275.735C335.78 279.965 335.9 284.195 335.91 288.425C335.95 290.685 335.6 291.355 333.89 293.315Z" fill="white"/>
<path d="M148.481 261.845C149.2 262.465 149.778 263.232 150.175 264.095C150.572 264.958 150.778 265.896 150.781 266.845C150.871 273.365 151.101 279.845 151.271 286.385C151.271 287.175 151.201 287.975 151.271 288.775C151.33 289.735 151.167 290.696 150.794 291.582C150.421 292.469 149.849 293.257 149.121 293.885C148.254 293.393 147.543 292.669 147.066 291.795C146.589 290.92 146.365 289.93 146.421 288.935C146.421 281.525 146.241 274.105 146.021 266.695C145.969 265.742 146.169 264.792 146.601 263.941C147.033 263.089 147.681 262.367 148.481 261.845Z" fill="white"/>
</svg>
